# xmcd
#
# Track frame offsets: 
#        150
#        16532
#        32169
#        50962
#        65947
#        83152
#        100375
#        114270
#        135397
#        148905
#        163470
#        179607
#        196947
#        210115
#        232895
#        254300
#        279202
#        297957
#        311150
#
# Disc length: 4363 seconds
#
# Revision: 2
# Processed by: cddbd v1.5.2PL0 Copyright (c) Steve Scherf et al.
# Submitted via: ExactAudioCopy v1.3
#
DISCID=17110913
DTITLE=Jimmy Jam and Terry Lewis - The Hit Songs [CD4)
DYEAR=1996
DGENRE=Funk
TTITLE0=Ralph Tresvant - Money Can't Buy You Love
TTITLE1=Shabba Ranks and Johnny Gill - Slow and Sexy
TTITLE2=Caron Wheeler - I Adore You
TTITLE3=Janet Jackson - That's the Way Love Goes
TTITLE4=Janet Jackson - Again
TTITLE5=Johnny Gill - Quiet Time to Play
TTITLE6=Sounds of Blackness - I Believe
TTITLE7=Janet Jackson - Any Time, Any Place
TTITLE8=Patti LaBelle - The Right Kinda Lover
TTITLE9=Mint Condition - U Send Me Swingin'
TTITLE10=Janet Jackson - You Want This
TTITLE11=Sounds of Blackness - The Lord Will Make a Way
TTITLE12=Barry White - Come On
TTITLE13=Gladys Knight - Home Alone
TTITLE14=Janet Jackson - The Body That Loves You
TTITLE15=Boyz II Men - On Bended Knee
TTITLE16=Michael Jackson - Scream
TTITLE17=Solo - Heaven
TTITLE18=Janet Jackson - Runaway
EXTD=
EXTT0=
EXTT1=
EXTT2=
EXTT3=
EXTT4=
EXTT5=
EXTT6=
EXTT7=
EXTT8=
EXTT9=
EXTT10=
EXTT11=
EXTT12=
EXTT13=
EXTT14=
EXTT15=
EXTT16=
EXTT17=
EXTT18=
PLAYORDER=
